# xmcd
#
# Track frame offsets: 
#        150
#        15276
#        30694
#        44407
#        60604
#        75694
#        90684
#        105971
#        121487
#        136884
#        153585
#        170050
#
# Disc length: 2500 seconds
#
# Revision: 0
# Processed by: cddbd v1.5.2PL0 Copyright (c) Steve Scherf et al.
# Submitted via: ExactAudioCopy v1.3
#
DISCID=9109c20c
DTITLE=Lara Bianca Fuchs - Gemeinsam statt einsam
DYEAR=2011
DGENRE=Schlager
TTITLE0=Engel ohne Flügel
TTITLE1=Mit den Waffen einer Frau
TTITLE2=Ich hab' Sehnsucht nach dir (und der Sommernacht)
TTITLE3=Gemeinsam statt einsam
TTITLE4=Mi amor - warum musst Du gehen
TTITLE5=Komm gib mir Deine Hand
TTITLE6=Ich zähl' bis 3
TTITLE7=Ich lieb' Dich immer mehr
TTITLE8=Ist es Liebe
TTITLE9=Zum letzten Mal
TTITLE10=Ich suche den Mann für's Leben
TTITLE11=Flieg nicht so hoch mein kleiner Freund
EXTD=
EXTT0=
EXTT1=
EXTT2=
EXTT3=
EXTT4=
EXTT5=
EXTT6=
EXTT7=
EXTT8=
EXTT9=
EXTT10=
EXTT11=
PLAYORDER=
